<svg xmlns="http://www.w3.org/2000/svg" width="503" height="445.348" viewBox="0 0 503 445.348">
    <defs>
        <style>
            .cls-1 {
            fill: #ebebeb;
            }

            .cls-2 {
            fill: #e0e0e0;
            }

            .cls-3 {
            fill: #f5f5f5;
            }

            .cls-4 {
            fill: #461e5d;
            }

            .cls-12, .cls-13, .cls-15, .cls-5, .cls-6, .cls-7, .cls-8 {
            fill: #fff;
            }

            .cls-5 {
            opacity: 0.6;
            }

            .cls-6 {
            opacity: 0.5;
            }

            .cls-7 {
            opacity: 0.4;
            }

            .cls-8 {
            opacity: 0.7;
            }

            .cls-10, .cls-12, .cls-9 {
            opacity: 0.2;
            }

            .cls-11 {
            fill: #263238;
            }

            .cls-13 {
            opacity: 0.1;
            }

            .cls-14 {
            fill: #ebb376;
            }

            .cls-15 {
            opacity: 0.8;
            }

            .cls-16 {
            fill: #d58745;
            }

            .cls-17 {
            fill: none;
            stroke: #263238;
            stroke-linecap: round;
            stroke-linejoin: round;
            stroke-width: 0.526px;
            }
        </style>
    </defs>
    <g id="Group_1736" data-name="Group 1736" transform="translate(-180 -108.432)">
        <rect id="Rectangle_2481" data-name="Rectangle 2481" class="cls-1" width="503" height="0.252"
              transform="translate(180 499.822)"/>
        <rect id="Rectangle_2482" data-name="Rectangle 2482" class="cls-1" width="39.591" height="0.299"
              transform="translate(632.532 519.033)"/>
        <rect id="Rectangle_2483" data-name="Rectangle 2483" class="cls-1" width="10.388" height="0.299"
              transform="translate(519.868 522.283)"/>
        <rect id="Rectangle_2484" data-name="Rectangle 2484" class="cls-1" width="22.939" height="0.299"
              transform="translate(608.396 507.937)"/>
        <rect id="Rectangle_2485" data-name="Rectangle 2485" class="cls-1" width="51.628" height="0.299"
              transform="translate(197.034 509.945)"/>
        <rect id="Rectangle_2486" data-name="Rectangle 2486" class="cls-1" width="7.567" height="0.299"
              transform="translate(259.312 509.945)"/>
        <rect id="Rectangle_2487" data-name="Rectangle 2487" class="cls-1" width="111.982" height="0.299"
              transform="translate(291.48 514.988)"/>
        <path id="Path_8881" data-name="Path 8881" class="cls-1"
              d="M275.838,393.051H45.024a6.826,6.826,0,0,1-6.814-6.826V61.766A6.826,6.826,0,0,1,45.024,55H275.838a6.826,6.826,0,0,1,6.826,6.826v324.4A6.826,6.826,0,0,1,275.838,393.051ZM45.024,55.239a6.527,6.527,0,0,0-6.515,6.527v324.46a6.527,6.527,0,0,0,6.515,6.527H275.838a6.539,6.539,0,0,0,6.527-6.527V61.766a6.539,6.539,0,0,0-6.527-6.527Z"
              transform="translate(141.79 53.432)"/>
        <path id="Path_8882" data-name="Path 8882" class="cls-1"
              d="M492.152,393.051H261.326a6.838,6.838,0,0,1-6.826-6.826V61.766A6.837,6.837,0,0,1,261.326,55H492.152a6.826,6.826,0,0,1,6.8,6.766v324.46A6.826,6.826,0,0,1,492.152,393.051ZM261.326,55.239a6.539,6.539,0,0,0-6.527,6.527v324.46a6.539,6.539,0,0,0,6.527,6.527H492.152a6.539,6.539,0,0,0,6.527-6.527V61.766a6.539,6.539,0,0,0-6.527-6.527Z"
              transform="translate(184.047 53.432)"/>
        <rect id="Rectangle_2488" data-name="Rectangle 2488" class="cls-2" width="155.924" height="8.009"
              transform="translate(513.018 208.375)"/>
        <rect id="Rectangle_2489" data-name="Rectangle 2489" class="cls-1" width="6.873" height="29.526"
              transform="translate(520.19 178.852)"/>
        <rect id="Rectangle_2490" data-name="Rectangle 2490" class="cls-1" width="6.873" height="29.526"
              transform="translate(553.41 178.852)"/>
        <rect id="Rectangle_2491" data-name="Rectangle 2491" class="cls-1" width="6.873" height="29.526"
              transform="matrix(0.985, -0.17, 0.17, 0.985, 591.224, 179.262)"/>
        <rect id="Rectangle_2492" data-name="Rectangle 2492" class="cls-1" width="6.873" height="25.641"
              transform="translate(528.702 182.75)"/>
        <rect id="Rectangle_2493" data-name="Rectangle 2493" class="cls-1" width="6.873" height="25.641"
              transform="translate(544.492 182.75)"/>
        <rect id="Rectangle_2494" data-name="Rectangle 2494" class="cls-1" width="6.873" height="25.641"
              transform="translate(584.346 182.75)"/>
        <rect id="Rectangle_2495" data-name="Rectangle 2495" class="cls-1" width="6.873" height="25.641"
              transform="translate(562.592 183.334) rotate(-12.53)"/>
        <rect id="Rectangle_2496" data-name="Rectangle 2496" class="cls-1" width="3.431" height="30.996"
              transform="translate(538.084 177.381)"/>
        <rect id="Rectangle_2497" data-name="Rectangle 2497" class="cls-1" width="3.431" height="30.996"
              transform="translate(578.943 177.381)"/>
        <rect id="Rectangle_2498" data-name="Rectangle 2498" class="cls-1" width="33.47" height="23.107"
              transform="translate(620.506 185.01)"/>
        <rect id="Rectangle_2499" data-name="Rectangle 2499" class="cls-2" width="155.924" height="8.009"
              transform="translate(668.943 276.189) rotate(180)"/>
        <rect id="Rectangle_2500" data-name="Rectangle 2500" class="cls-1" width="6.873" height="29.526"
              transform="translate(661.759 268.195) rotate(180)"/>
        <rect id="Rectangle_2501" data-name="Rectangle 2501" class="cls-1" width="6.873" height="29.526"
              transform="translate(628.551 268.195) rotate(180)"/>
        <rect id="Rectangle_2502" data-name="Rectangle 2502" class="cls-1" width="6.873" height="29.526"
              transform="matrix(-0.985, -0.17, 0.17, -0.985, 585.732, 268.186)"/>
        <rect id="Rectangle_2503" data-name="Rectangle 2503" class="cls-1" width="6.873" height="25.641"
              transform="translate(653.247 268.182) rotate(180)"/>
        <rect id="Rectangle_2504" data-name="Rectangle 2504" class="cls-1" width="6.873" height="25.641"
              transform="translate(637.469 268.182) rotate(180)"/>
        <rect id="Rectangle_2505" data-name="Rectangle 2505" class="cls-1" width="6.873" height="25.641"
              transform="translate(597.615 268.182) rotate(180)"/>
        <rect id="Rectangle_2506" data-name="Rectangle 2506" class="cls-1" width="6.873" height="25.641"
              transform="translate(613.821 268.168) rotate(-167.47)"/>
        <rect id="Rectangle_2507" data-name="Rectangle 2507" class="cls-1" width="3.431" height="30.996"
              transform="translate(643.875 268.182) rotate(180)"/>
        <rect id="Rectangle_2508" data-name="Rectangle 2508" class="cls-1" width="3.431" height="30.996"
              transform="translate(603.017 268.182) rotate(180)"/>
        <rect id="Rectangle_2509" data-name="Rectangle 2509" class="cls-1" width="33.47" height="23.107"
              transform="translate(561.442 267.93) rotate(180)"/>
        <path id="Path_8883" data-name="Path 8883" class="cls-2"
              d="M53,266V405.859h7.172V280.344H186.881V405.859h8.368V266Z" transform="translate(144.68 94.654)"/>
        <path id="Path_8884" data-name="Path 8884" class="cls-3"
              d="M119,266V405.859h7.172V280.344H252.881V405.859h8.368V266Z" transform="translate(157.574 94.654)"/>
        <path id="Path_8885" data-name="Path 8885" class="cls-2"
              d="M163.155,228.319c-1.6-2.63-4.232-.335-4.232-.335.371-5.056-4.267-8.5-4.267-8.5s5.391,0,6.144-5.152-1.877-2.749-4.351-2.785-5.056,7.172-1.793,11.236,2.391,11-5.14,17.656a14.775,14.775,0,0,0-3.933,6.132c.574-6.12.9-14.751-.908-20.5-3.06-9.79,2.773-12.42,4.459-17.309s-4.459-9.037-4.459-9.037,5.786-2.63,2.953-5.642-8.643-2.606-8.643,1.339,3.945,5.439,3.945,5.439,4.518,4.7,4.518,7.172-4.518,7.71-4.518,7.71,2.068-4.507-2.068-4.7-5.463,5.26-3.765,7.71,4.519.371,4.519.371a47.145,47.145,0,0,0,1.291,8.463c.418,1.411.227,6.933-.132,12.671a14.345,14.345,0,0,0-3.67-5.439c-7.519-6.658-8.368-13.591-5.14-17.656s.681-11.272-1.793-11.236-5.1-2.391-4.351,2.785,6.144,5.152,6.144,5.152-4.638,3.443-4.256,8.5c0,0-2.642-2.3-4.244.335-2.845,4.71,3.765,7.626,4.877,5.307,0,0,14.034,9.934,10.651,24.23l.789,1.2c-.108,1.2-.167,1.853-.167,1.853l1.1-.466,1.2,1.841a43.032,43.032,0,0,0,.323,6.216l3.347-4.961c-3.383-14.344,10.651-24.23,10.651-24.23C159.39,235.946,166.012,233.029,163.155,228.319Z"
              transform="translate(158.699 80.217)"/>
        <path id="Path_8886" data-name="Path 8886" class="cls-1"
              d="M153.162,271.47l-4.53-25.928L149.91,238H135.649l1.279,7.543L132.41,271.47Z"
              transform="translate(160.194 89.184)"/>
        <g id="freepik--Shadow--inject-105" transform="translate(201.397 526.717)">
            <ellipse id="freepik--path--inject-105" class="cls-3" cx="231.77" cy="13.532" rx="231.77" ry="13.532"
                     transform="translate(0 0)"/>
        </g>
        <g id="freepik--Files--inject-105" transform="translate(212.083 151.051)">
            <rect id="Rectangle_2510" data-name="Rectangle 2510" class="cls-4" width="41.85" height="54.652"
                  transform="translate(244.91 0) rotate(28.37)"/>
            <rect id="Rectangle_2511" data-name="Rectangle 2511" class="cls-5" width="41.85" height="54.652"
                  transform="translate(244.91 0) rotate(28.37)"/>
            <rect id="Rectangle_2512" data-name="Rectangle 2512" class="cls-4" width="29.358" height="2.953"
                  transform="translate(246.732 9.784) rotate(28.37)"/>
            <rect id="Rectangle_2513" data-name="Rectangle 2513" class="cls-4" width="29.358" height="2.953"
                  transform="translate(244.277 14.336) rotate(28.37)"/>
            <rect id="Rectangle_2514" data-name="Rectangle 2514" class="cls-4" width="29.358" height="2.953"
                  transform="translate(241.816 18.884) rotate(28.37)"/>
            <rect id="Rectangle_2515" data-name="Rectangle 2515" class="cls-4" width="29.358" height="2.953"
                  transform="translate(239.35 23.431) rotate(28.37)"/>
            <rect id="Rectangle_2516" data-name="Rectangle 2516" class="cls-4" width="29.358" height="2.953"
                  transform="translate(236.9 27.973) rotate(28.37)"/>
            <rect id="Rectangle_2517" data-name="Rectangle 2517" class="cls-4" width="29.358" height="2.953"
                  transform="translate(234.446 32.531) rotate(28.37)"/>
            <rect id="Rectangle_2518" data-name="Rectangle 2518" class="cls-4" width="29.358" height="2.953"
                  transform="translate(231.997 37.073) rotate(28.37)"/>
            <rect id="Rectangle_2519" data-name="Rectangle 2519" class="cls-4" width="19.006" height="2.953"
                  transform="translate(229.526 41.625) rotate(28.37)"/>
            <path id="Path_8893" data-name="Path 8893" class="cls-4"
                  d="M90.559,100.213l-2.2-1.351a2.929,2.929,0,0,0-2.63-.227l-9.766,4.124a2.558,2.558,0,0,0-1.566,1.984l-.359,2.391a2.486,2.486,0,0,1-1.554,1.972L66.652,111.5a2.57,2.57,0,0,0-1.3,3.586l15.54,31.845a2.941,2.941,0,0,0,3.718,1.423l46.213-19.293a2.558,2.558,0,0,0,1.315-3.586l-15.54-31.833a2.941,2.941,0,0,0-3.718-1.434L93.189,100.44A2.929,2.929,0,0,1,90.559,100.213Z"
                  transform="translate(-65.049 -90.391)"/>
            <path id="Path_8894" data-name="Path 8894" class="cls-4"
                  d="M117.3,93.205,74.968,110.944a3.837,3.837,0,0,0-2.152,4.626l9.264,29.322a3.108,3.108,0,0,0,4.244,1.913l42.34-17.715a3.861,3.861,0,0,0,2.152-4.626L121.54,95.142a3.1,3.1,0,0,0-4.244-1.937Z"
                  transform="translate(-63.563 -90.209)"/>
            <path id="Path_8895" data-name="Path 8895" class="cls-6"
                  d="M117.3,93.205,74.968,110.944a3.837,3.837,0,0,0-2.152,4.626l9.264,29.322a3.108,3.108,0,0,0,4.244,1.913l42.34-17.715a3.861,3.861,0,0,0,2.152-4.626L121.54,95.142a3.1,3.1,0,0,0-4.244-1.937Z"
                  transform="translate(-63.563 -90.209)"/>
        </g>
        <g id="freepik--Cloud--inject-105" transform="translate(252.677 157.441)">
            <path id="Path_8896" data-name="Path 8896" class="cls-4"
                  d="M265.729,162.941a36.016,36.016,0,0,0,.789-7.507,35.646,35.646,0,0,0-35.646-35.646,36.291,36.291,0,0,0-6.587.61c-.908-.167-1.829,0-2.773-.108A41.742,41.742,0,0,0,183.272,96H170.123a41.838,41.838,0,0,0-42.041,41.742v.777a35.192,35.192,0,0,0,6.455,69.846h129.1a22.736,22.736,0,0,0,2.068-45.424Z"
                  transform="translate(-99.009 -95.999)"/>
            <path id="Path_8897" data-name="Path 8897" class="cls-6"
                  d="M265.729,162.941a36.016,36.016,0,0,0,.789-7.507,35.646,35.646,0,0,0-35.646-35.646,36.291,36.291,0,0,0-6.587.61c-.908-.167-1.829,0-2.773-.108A41.742,41.742,0,0,0,183.272,96H170.123a41.838,41.838,0,0,0-42.041,41.742v.777a35.192,35.192,0,0,0,6.455,69.846h129.1a22.736,22.736,0,0,0,2.068-45.424Z"
                  transform="translate(-99.009 -95.999)"/>
            <path id="Path_8898" data-name="Path 8898" class="cls-7"
                  d="M263.579,162.941a36.016,36.016,0,0,0,.789-7.507,35.646,35.646,0,0,0-35.646-35.646,36.291,36.291,0,0,0-6.586.61c-.908-.167-1.829,0-2.773-.108A41.742,41.742,0,0,0,181.123,96h0a41.838,41.838,0,0,0-42.041,41.742v.777a35.192,35.192,0,0,0,6.455,69.846H261.488a22.736,22.736,0,0,0,2.068-45.424Z"
                  transform="translate(-96.86 -95.999)"/>
            <path id="Path_8899" data-name="Path 8899" class="cls-4"
                  d="M285.97,250.722H245.722a59.84,59.84,0,0,1-59.769-59.769V179H174v11.954a71.806,71.806,0,0,0,71.722,71.722H285.97Z"
                  transform="translate(-84.358 -79.783)"/>
            <path id="Path_8900" data-name="Path 8900" class="cls-4" d="M180.574,172.34,170.21,182.692h20.716Z"
                  transform="translate(-85.098 -81.084)"/>
        </g>
        <g id="freepik--Stuff--inject-105" transform="translate(221.587 429.873)">
            <path id="Path_8901" data-name="Path 8901" class="cls-4"
                  d="M105.452,372.135,98.28,350.224a31.271,31.271,0,0,1,25.963-6.969l5.977,20.513Z"
                  transform="translate(-68.061 -320.225)"/>
            <path id="Path_8902" data-name="Path 8902" class="cls-8"
                  d="M105.452,372.135,98.28,350.224a31.271,31.271,0,0,1,25.963-6.969l5.977,20.513Z"
                  transform="translate(-68.061 -320.225)"/>
            <g id="Group_1717" data-name="Group 1717" class="cls-9" transform="translate(33.638 27.411)">
                <path id="Path_8903" data-name="Path 8903"
                      d="M101.14,354.6A19.382,19.382,0,0,1,103.973,352a25.442,25.442,0,0,1,3.323-2.176c.634-.335,1.3-.693,2.008-1a18.842,18.842,0,0,1,2.164-.837,21.416,21.416,0,0,1,2.235-.622l1.112-.251,1.112-.131c.359,0,.717-.108,1.064-.131h1.028a10.763,10.763,0,0,1,1.889.06c.574.06,1.1.108,1.566.191l1.2.275,1.016.263h-1.052l-1.2-.06h-1.554a16.616,16.616,0,0,0-1.805.143,17.55,17.55,0,0,0-2,.3l-1.052.191-1.052.275a19.656,19.656,0,0,0-2.128.634c-.729.191-1.411.514-2.1.765s-1.339.574-1.972.873-1.2.6-1.817.92-1.112.6-1.6.885c-.98.574-1.793,1.064-2.391,1.446Z"
                      transform="translate(-101.14 -346.836)"/>
                <path id="Path_8904" data-name="Path 8904"
                      d="M101.67,356.148s.275-.239.8-.61,1.267-.909,2.211-1.458a35.985,35.985,0,0,1,3.311-1.769,39.665,39.665,0,0,1,3.993-1.626c.705-.2,1.411-.442,2.1-.634a19.174,19.174,0,0,1,2.08-.466c.681-.108,1.339-.263,1.972-.311s1.2-.131,1.781-.143a20.59,20.59,0,0,1,2.654.1l1,.12s-.371.06-1,.12a4,4,0,0,0-1.124.12l-1.458.227c-.538.084-1.1.239-1.709.347s-1.2.311-1.877.454-1.315.383-2,.55-1.351.442-2.032.657c-2.725.909-5.391,2.008-7.387,2.857-.992.442-1.841.777-2.391,1.052Z"
                      transform="translate(-101.036 -346.389)"/>
                <path id="Path_8905" data-name="Path 8905"
                      d="M103.08,359.643a8.371,8.371,0,0,1,.741-.657c.478-.394,1.2-.956,2.056-1.566a31.088,31.088,0,0,1,3.144-1.9,33.314,33.314,0,0,1,3.837-1.757,28.581,28.581,0,0,1,4.064-1.2,16.874,16.874,0,0,1,1.937-.287c.622,0,1.2-.132,1.745-.12l1.47.06a8.144,8.144,0,0,1,1.124.143l.968.167s-.359,0-.98.06a6.246,6.246,0,0,0-1.1.072l-1.434.191c-.514.06-1.064.2-1.662.3s-1.2.311-1.829.442-1.267.394-1.925.574-1.3.454-1.96.681-1.3.49-1.937.765-1.267.514-1.853.8c-1.2.538-2.307,1.088-3.251,1.554s-1.745.873-2.283,1.2Z"
                      transform="translate(-100.761 -345.796)"/>
                <path id="Path_8906" data-name="Path 8906"
                      d="M103.92,361.824a19.506,19.506,0,0,1,2.69-2.223,26.95,26.95,0,0,1,3.084-1.841c.6-.287,1.2-.574,1.853-.837a19.572,19.572,0,0,1,1.984-.705,20.52,20.52,0,0,1,2.044-.526,15.4,15.4,0,0,1,2.02-.323,13.147,13.147,0,0,1,1.913-.108,11.115,11.115,0,0,1,1.7.072l1.434.191,1.076.263c.586.155.92.263.92.263h-3.443a13.473,13.473,0,0,0-1.638.1,17.4,17.4,0,0,0-1.817.251c-.622.084-1.2.263-1.913.406s-1.291.347-1.936.538a37.44,37.44,0,0,0-3.753,1.363c-1.2.5-2.259,1.016-3.18,1.47s-1.685.861-2.211,1.2Z"
                      transform="translate(-100.597 -345.191)"/>
                <path id="Path_8907" data-name="Path 8907"
                      d="M105.08,365.066a8.2,8.2,0,0,1,.705-.657c.466-.394,1.124-.956,1.972-1.566a29.222,29.222,0,0,1,3.024-1.9c.562-.323,1.2-.634,1.793-.92s1.279-.538,1.925-.825a17.518,17.518,0,0,1,1.984-.657,17.016,17.016,0,0,1,1.984-.466,18.451,18.451,0,0,1,1.877-.251c.61,0,1.2-.1,1.709-.072l1.434.1a5.977,5.977,0,0,1,1.088.191l.932.215h-2.032l-1.387.131c-.5.06-1.052.191-1.614.263s-1.2.287-1.781.406-1.2.383-1.877.55a16.213,16.213,0,0,0-1.9.669c-.634.239-1.267.478-1.877.753s-1.2.514-1.793.8c-1.2.538-2.211,1.088-3.132,1.554s-1.685.861-2.2,1.2Z"
                      transform="translate(-100.37 -344.704)"/>
            </g>
            <path id="Path_8908" data-name="Path 8908" class="cls-4"
                  d="M101.786,369.339l14.727-11.165a1.59,1.59,0,0,1,1.279-.3l16.819,3.192a1.614,1.614,0,0,1,.466,3.012L121.2,371.6a1.745,1.745,0,0,1-.729.191l-17.691.454a1.614,1.614,0,0,1-.992-2.9Z"
                  transform="translate(-67.502 -317.274)"/>
            <path id="Path_8909" data-name="Path 8909" class="cls-4"
                  d="M123.89,382.592s22.64-54.784,26.633-58.179,29.287,11.32,29.287,11.32l-22.521,57.82Z"
                  transform="translate(-63.058 -323.905)"/>
            <path id="Path_8910" data-name="Path 8910" class="cls-10"
                  d="M130.078,382.021s21.684-52.333,24.912-54.593S176.7,334.8,176.7,334.8s-19.257-11.762-25.163-9.766S125.5,380.825,125.5,380.825Z"
                  transform="translate(-62.743 -323.728)"/>
            <rect id="Rectangle_2523" data-name="Rectangle 2523" class="cls-11" width="96.156" height="56.78"
                  transform="translate(16.807 53.308)"/>
            <rect id="Rectangle_2524" data-name="Rectangle 2524" class="cls-12" width="96.156" height="56.78"
                  transform="translate(16.807 53.308)"/>
            <rect id="Rectangle_2525" data-name="Rectangle 2525" class="cls-7" width="59.697" height="56.78"
                  transform="translate(53.266 53.308)"/>
            <path id="Path_8911" data-name="Path 8911" class="cls-11"
                  d="M117.56,371.979,140.2,353.75l50.5,3.443-13.448,14.787Z" transform="translate(-64.294 -318.074)"/>
            <path id="Path_8912" data-name="Path 8912" class="cls-11"
                  d="M126.266,372.224,109.16,352.5,73,356.385l16.807,15.241Z" transform="translate(-73 -318.318)"/>
            <path id="Path_8913" data-name="Path 8913" class="cls-13"
                  d="M126.266,372.224,109.16,352.5,73,356.385l16.807,15.241Z" transform="translate(-73 -318.318)"/>
            <path id="Path_8914" data-name="Path 8914" class="cls-7"
                  d="M117.56,371.979,140.2,353.75l50.5,3.443-13.448,14.787Z" transform="translate(-64.294 -318.074)"/>
            <path id="Path_8915" data-name="Path 8915" class="cls-4"
                  d="M154.767,390.36a15.277,15.277,0,1,0,15.277,15.277A15.277,15.277,0,0,0,154.767,390.36Zm0,21.361a6.084,6.084,0,1,1,4.31-1.778A6.1,6.1,0,0,1,154.767,411.721Z"
                  transform="translate(-60.01 -310.921)"/>
            <path id="Path_8916" data-name="Path 8916" class="cls-8"
                  d="M168.537,399a14.8,14.8,0,0,0-.932-1.638,13.614,13.614,0,0,0-1.53-2,15.109,15.109,0,0,0-10.125-4.949,9.813,9.813,0,0,0-1.2-.06,15.289,15.289,0,0,0-14.811,18.983,12.525,12.525,0,0,0,.55,1.721,13.757,13.757,0,0,0,1.2,2.391,15.241,15.241,0,0,0,11.762,7.352c.442,0,.885.06,1.327.06a15.289,15.289,0,0,0,13.771-21.9Zm-13.771,12.719a4.615,4.615,0,0,1-.574,0,6.061,6.061,0,0,1-5.056-3.741,6.611,6.611,0,0,1-.335-1.076,6.474,6.474,0,0,1-.084-.693,4.06,4.06,0,0,1,0-.538,6.084,6.084,0,0,1,6.084-6.1,2.594,2.594,0,0,1,.43,0,6.048,6.048,0,0,1,3.431,1.339,5.8,5.8,0,0,1,.669.657,4.665,4.665,0,0,1,.478.61,5.977,5.977,0,0,1,1.088,3.467,6.084,6.084,0,0,1-6.132,6.073Z"
                  transform="translate(-60.01 -310.921)"/>
            <path id="Path_8917" data-name="Path 8917" class="cls-12"
                  d="M153.836,408.812l-.753,9.157a15.241,15.241,0,0,1-11.762-7.352l7.459-5.547a6.061,6.061,0,0,0,5.056,3.741Z"
                  transform="translate(-59.652 -308.047)"/>
            <path id="Path_8918" data-name="Path 8918" class="cls-12"
                  d="M163.508,395.359l-7.447,5.535a6.049,6.049,0,0,0-3.431-1.339l.753-9.145A15.11,15.11,0,0,1,163.508,395.359Z"
                  transform="translate(-57.443 -310.911)"/>
            <path id="Path_8919" data-name="Path 8919" class="cls-12"
                  d="M148.726,404.283l-8.3,4.2a12.525,12.525,0,0,1-.55-1.721l8.762-3.168a6.466,6.466,0,0,0,.084.693Z"
                  transform="translate(-59.934 -308.336)"/>
            <path id="Path_8920" data-name="Path 8920" class="cls-12"
                  d="M165.3,397.858l-8.762,3.168a4.666,4.666,0,0,0-.478-.61l8.308-4.2a14.8,14.8,0,0,1,.932,1.638Z"
                  transform="translate(-56.773 -309.776)"/>
            <path id="Path_8921" data-name="Path 8921" class="cls-4"
                  d="M163.387,393.91c-8.368,0-12.946,5.893-10.077,13.149s12.013,13.149,20.441,13.149,12.958-5.881,10.089-13.149S171.826,393.91,163.387,393.91Zm7.256,18.4a9.276,9.276,0,0,1-8.152-5.248c-1.2-2.893.657-5.248,4.016-5.248a9.3,9.3,0,0,1,8.152,5.248c1.16,2.893-.657,5.248-4.016,5.248Z"
                  transform="translate(-57.477 -310.228)"/>
            <path id="Path_8922" data-name="Path 8922" class="cls-13"
                  d="M180.084,401.337c-.466-.478-.956-.956-1.482-1.411a21.282,21.282,0,0,0-2.211-1.709,23.752,23.752,0,0,0-11.8-4.267h-1.2c-8.368,0-12.946,5.881-10.077,13.149a15.541,15.541,0,0,0,1.709,3.192,14.347,14.347,0,0,0,1.2,1.482,19.3,19.3,0,0,0,2,2.092A24.386,24.386,0,0,0,172.47,420.2h1.351c8.439,0,12.958-5.893,10.1-13.149a18.1,18.1,0,0,0-3.837-5.714ZM170.629,412.3h-.586a9.754,9.754,0,0,1-6.324-3.216,7.245,7.245,0,0,1-.693-.932,5.769,5.769,0,0,1-.323-.6,4.052,4.052,0,0,1-.215-.466c-1.2-2.9.657-5.248,4.016-5.248a2.6,2.6,0,0,1,.43,0,9.193,9.193,0,0,1,3.885,1.2,8.78,8.78,0,0,1,.9.574,5.75,5.75,0,0,1,.681.526,7.507,7.507,0,0,1,2.271,2.976C175.817,409.944,174,412.3,170.629,412.3Z"
                  transform="translate(-57.475 -310.22)"/>
            <path id="Path_8923" data-name="Path 8923" class="cls-12"
                  d="M169.108,409.8l2.391,7.889a24.386,24.386,0,0,1-14.249-6.335l5.57-4.781A9.754,9.754,0,0,0,169.108,409.8Z"
                  transform="translate(-56.54 -307.754)"/>
            <path id="Path_8924" data-name="Path 8924" class="cls-12"
                  d="M174.416,398.221,168.846,403a9.192,9.192,0,0,0-3.885-1.2l-2.391-7.877a23.753,23.753,0,0,1,11.846,4.291Z"
                  transform="translate(-55.501 -310.224)"/>
            <path id="Path_8925" data-name="Path 8925" class="cls-12"
                  d="M162.619,405.9l-6.873,3.586a14.344,14.344,0,0,1-1.2-1.482l7.71-2.7A5.765,5.765,0,0,0,162.619,405.9Z"
                  transform="translate(-57.068 -308.002)"/>
            <path id="Path_8926" data-name="Path 8926" class="cls-12"
                  d="M176.938,400.355l-7.686,2.737a5.742,5.742,0,0,0-.681-.526l6.885-3.586A16.14,16.14,0,0,1,176.938,400.355Z"
                  transform="translate(-54.328 -309.237)"/>
        </g>
        <g id="freepik--Chair--inject-105" transform="translate(541.277 428.025)">
            <path id="Path_8927" data-name="Path 8927" class="cls-4"
                  d="M372.4,330l.43,18.612,1.96,84.19h6.467l1.948-84.19.43-18.612Z"
                  transform="translate(-334.196 -320.867)"/>
            <path id="Path_8928" data-name="Path 8928" class="cls-7"
                  d="M372.4,330l.43,18.612,1.96,84.19h6.467l1.948-84.19.43-18.612Z"
                  transform="translate(-334.196 -320.867)"/>
            <path id="Path_8929" data-name="Path 8929" class="cls-10" d="M372.4,330l.43,19.126h10.376l.43-19.126Z"
                  transform="translate(-334.196 -320.867)"/>
            <path id="Path_8930" data-name="Path 8930" class="cls-4" d="M343.02,432.288,349,331.1h9.766L350.4,432.288Z"
                  transform="translate(-339.936 -320.652)"/>
            <path id="Path_8931" data-name="Path 8931" class="cls-6"
                  d="M350.417,432.308H343.03l5.427-92.1.538-9.2h9.766l-.753,9.2Z"
                  transform="translate(-339.934 -320.672)"/>
            <path id="Path_8932" data-name="Path 8932" class="cls-10" d="M357.874,331l-.753,9.563H347.57l.538-9.563Z"
                  transform="translate(-339.047 -320.672)"/>
            <path id="Path_8933" data-name="Path 8933" class="cls-4"
                  d="M406.388,432.288,398.02,331.1h9.766l5.977,101.188Z" transform="translate(-329.191 -320.652)"/>
            <path id="Path_8934" data-name="Path 8934" class="cls-6"
                  d="M406.364,432.308l-7.591-92.1-.753-9.2h9.766l.538,9.2,5.427,92.1Z"
                  transform="translate(-329.191 -320.672)"/>
            <path id="Path_8935" data-name="Path 8935" class="cls-10" d="M398.02,331l.753,9.563h9.551L407.786,331Z"
                  transform="translate(-329.191 -320.672)"/>
            <path id="Path_8936" data-name="Path 8936" class="cls-4"
                  d="M0,.024H79.994V8a5.977,5.977,0,0,1-5.977,5.977H5.977A5.977,5.977,0,0,1,0,8V.024Z"
                  transform="translate(83.819 13.974) rotate(180)"/>
            <rect id="Rectangle_2526" data-name="Rectangle 2526" class="cls-4" width="87.656" height="6.981" rx="2.01"
                  transform="translate(87.656 13.938) rotate(180)"/>
            <rect id="Rectangle_2527" data-name="Rectangle 2527" class="cls-5" width="87.656" height="6.981" rx="2.01"
                  transform="translate(87.656 13.938) rotate(180)"/>
        </g>
        <g id="freepik--Character--inject-105" transform="translate(446.367 229.408)">
            <g id="freepik--group--inject-105" transform="translate(0 0)">
                <path id="Path_8937" data-name="Path 8937" class="cls-11"
                      d="M363.267,231.071s-.335.908-.944,2.391-1.542,3.742-2.678,6.2c-2.749,5.977-6.742,13.579-10.914,17.68a11.237,11.237,0,0,1-3.706,2.582c-4.447,1.709-15.6,2.02-25.557,1.925s-18.469-.6-18.469-.6v-7.543l32.741-8.726S351,213.834,361.235,209.22Z"
                      transform="translate(-253.235 -145.846)"/>
                <path id="Path_8938" data-name="Path 8938" class="cls-10"
                      d="M354.64,230.594c-.622,1.554-1.542,3.742-2.678,6.2-2.749,5.977-6.742,13.579-10.914,17.68C336.805,238.842,352.5,223.96,352.5,223.96Z"
                      transform="translate(-245.553 -142.967)"/>
                <path id="Path_8939" data-name="Path 8939" class="cls-14"
                      d="M350.532,412.693,341,411.39l-1.315-22.64,9.5,1.315Z" transform="translate(-245.676 -110.771)"/>
                <path id="Path_8940" data-name="Path 8940" class="cls-10"
                      d="M349.193,390.063l-9.5-1.3.753,12.934,9.5.837Z" transform="translate(-245.676 -110.769)"/>
                <path id="Path_8941" data-name="Path 8941" class="cls-4"
                      d="M353.716,300.361l2.319-14.56,53.337-3.192s5.678,30.291,1.315,38.359c-7.782,14.4-49.739,7.172-62.028,8.547,7.387,30.064,6.67,88.637,6.67,88.637l-17.536,1.339s-13.484-63.2-16.221-93.239C319.72,306.027,336.527,306.529,353.716,300.361Z"
                      transform="translate(-249.243 -131.508)"/>
                <path id="Path_8942" data-name="Path 8942" class="cls-4"
                      d="M355.249,398.154l-21.074,1.375L332.37,390.5l23.154-1.064Z"
                      transform="translate(-247.106 -110.637)"/>
                <path id="Path_8943" data-name="Path 8943" class="cls-14"
                      d="M332.928,405.281l-9.587.705-6-21.863,9.575-.693Z" transform="translate(-250.043 -111.811)"/>
                <path id="Path_8944" data-name="Path 8944" class="cls-4"
                      d="M322.091,403.155h-.167c0-.143-.49-2.833-1.65-3.467a1.076,1.076,0,0,0-.956,0,.837.837,0,0,0-.586.873,3.586,3.586,0,0,0,1.41,1.948,3.837,3.837,0,0,0-2.678.072.849.849,0,0,0-.335.753,1.2,1.2,0,0,0,.61,1.124,2.57,2.57,0,0,0,1.865,0,11.95,11.95,0,0,0,2.391-1h.084v-.072a.191.191,0,0,0,.012-.227Zm-2.881-2.678c0-.132,0-.3.323-.418h.108a.6.6,0,0,1,.514.06c.693.371,1.2,1.829,1.4,2.7l-.215-.06c-.944-.562-2.044-1.638-2.128-2.283Zm-1.255,3.514a.849.849,0,0,1-.371-.729.43.43,0,0,1,.155-.371c.55-.406,2.3-.06,3.586.323C319.736,404,318.517,404.29,317.955,403.992Z"
                      transform="translate(-250.084 -108.656)"/>
                <path id="Path_8945" data-name="Path 8945" class="cls-10"
                      d="M326.915,383.43l-9.575.705,3.431,12.492,9.467-1.16Z" transform="translate(-250.043 -111.811)"/>
                <path id="Path_8946" data-name="Path 8946" class="cls-4"
                      d="M319.923,413.741l16.879-5s-10.077-56.876-20.321-76.6c.765-.251,1.781-.574,3.036-.944,2.259-.681,5.26-1.53,8.786-2.51,24.529-6.8,74.244-19.556,74.244-19.556L379.835,287.94s-90.466,13.795-92.342,37.63C286.62,337.022,319.923,413.741,319.923,413.741Z"
                      transform="translate(-255.877 -130.467)"/>
                <path id="Path_8947" data-name="Path 8947" class="cls-4"
                      d="M334.477,390.741l-20.321,5.75-3.646-8.451,22.425-5.869Z"
                      transform="translate(-251.377 -112.057)"/>
                <path id="Path_8948" data-name="Path 8948" class="cls-10"
                      d="M314.761,329.793c2.259-.681,5.26-1.53,8.786-2.51-.705-5.786-.717-12.42,2.068-15.8,5.535-6.742,19.771-10.7,27.876-12.133,6.778-1.2,29.55-3.586,29.55-3.586s-29.55-2.833-59.769,5.977C308.354,306.113,311.259,320.708,314.761,329.793Z"
                      transform="translate(-251.098 -129.024)"/>
                <path id="Path_8949" data-name="Path 8949" class="cls-11"
                      d="M407.715,312.745c3.586-2.737.143-28.2,1.972-53.242,2.785-38.132,0-50.385-2.809-51.568a108.056,108.056,0,0,0-15.7-1.554,200.957,200.957,0,0,0-23.083.5,101.29,101.29,0,0,0-15.54,3.156s-12.575,40.045-4.542,97.722Z"
                      transform="translate(-244.573 -146.426)"/>
                <path id="Path_8950" data-name="Path 8950" class="cls-15"
                      d="M410.691,239.061h0c-.155,5.606-.49,12.109-1.04,19.616-1.829,25.043,1.59,50.5-1.972,53.242l-59.709-4.985a269.221,269.221,0,0,1-.06-75.488c4.853-7.579,14.273-16.221,18.6-20.011a8.989,8.989,0,0,0,5.5,2.857c4.65.908,9.957-1.2,14.344-3.873,3.467,3.455,10.041,10.448,12.922,16.341a18.784,18.784,0,0,1,.8,1.877c1.829,5.116,7.411-1.2,10.256-9.42a178.115,178.115,0,0,1,.359,19.843Z"
                      transform="translate(-244.584 -145.612)"/>
                <path id="Path_8951" data-name="Path 8951" class="cls-14"
                      d="M384.713,184.71c-1.3,7.459-2.462,21.086,2.833,25.94a23.907,23.907,0,0,1-16.735,7.6c-9.563.418-6.335-7.172-6.335-7.172,8.248-2.152,7.889-8.3,6.323-14.034Z"
                      transform="translate(-240.936 -150.635)"/>
                <path id="Path_8952" data-name="Path 8952" class="cls-10"
                      d="M377.916,188.94l-8.236,7.34a23.649,23.649,0,0,1,.8,4.076c3.156-.514,7.423-4.088,7.7-7.411a11.021,11.021,0,0,0-.263-4Z"
                      transform="translate(-239.817 -149.809)"/>
                <path id="Path_8953" data-name="Path 8953" class="cls-11"
                      d="M367.886,169.048c4.124,2.8,2.247,7.531-7.077,14.954-3.777-4.865-4.411-14.428-1.4-16.819S364.3,166.621,367.886,169.048Z"
                      transform="translate(-242.195 -154.278)"/>
                <path id="Path_8954" data-name="Path 8954" class="cls-14"
                      d="M385.7,177.373c-.442,10.077-.2,15.982-5.188,21.242-7.507,7.9-20.01,3.5-22.581-6.5-2.3-8.989-1.2-23.907,8.595-28.127A13.735,13.735,0,0,1,385.7,177.373Z"
                      transform="translate(-242.31 -154.905)"/>
                <path id="Path_8955" data-name="Path 8955" class="cls-11"
                      d="M368.8,177.738c0,.825-.406,1.494-.944,1.506s-.968-.645-.98-1.47.394-1.482.932-1.494S368.733,176.937,368.8,177.738Z"
                      transform="translate(-240.364 -152.282)"/>
                <path id="Path_8956" data-name="Path 8956" class="cls-11"
                      d="M361.017,177.89c0,.813-.406,1.482-.944,1.494s-.98-.634-.992-1.47.406-1.494.944-1.494S361,177.113,361.017,177.89Z"
                      transform="translate(-241.888 -152.255)"/>
                <path id="Path_8957" data-name="Path 8957" class="cls-16"
                      d="M363.869,177.93a29.157,29.157,0,0,1-3.789,7.065,4.781,4.781,0,0,0,3.921.669Z"
                      transform="translate(-241.693 -151.96)"/>
                <path id="Path_8958" data-name="Path 8958" class="cls-11"
                      d="M371.233,175.436a.43.43,0,0,0,.3-.072.478.478,0,0,0,.1-.669,4.782,4.782,0,0,0-3.957-1.925.454.454,0,0,0-.43.49h0a.49.49,0,0,0,.514.43h0a3.8,3.8,0,0,1,3.108,1.554.526.526,0,0,0,.37.191Z"
                      transform="translate(-240.294 -152.968)"/>
                <path id="Path_8959" data-name="Path 8959" class="cls-11"
                      d="M357.188,175.645a.49.49,0,0,0,.442-.275,3.789,3.789,0,0,1,2.666-2.223.49.49,0,0,0,.406-.55.478.478,0,0,0-.538-.406,4.782,4.782,0,0,0-3.407,2.773.478.478,0,0,0,.227.634h0A.383.383,0,0,0,357.188,175.645Z"
                      transform="translate(-242.351 -153.082)"/>
                <path id="Path_8960" data-name="Path 8960" class="cls-11"
                      d="M378.026,167.841c-4.674,1.7-4,6.754,3.216,16.221,4.877-3.837,7.83-12.934,5.475-15.982S382.162,166.371,378.026,167.841Z"
                      transform="translate(-238.767 -154.243)"/>
                <path id="Path_8961" data-name="Path 8961" class="cls-14"
                      d="M386.706,182.581a9.563,9.563,0,0,1-4.459,5.81c-2.929,1.65-5.188-.777-5.056-3.945.131-2.869,1.805-7.172,5.068-7.531S387.495,179.568,386.706,182.581Z"
                      transform="translate(-238.351 -152.164)"/>
                <path id="Path_8962" data-name="Path 8962" class="cls-17"
                      d="M370.762,185.79a7.029,7.029,0,0,1-6.622,3.144" transform="translate(-240.9 -150.424)"/>
                <path id="Path_8963" data-name="Path 8963" class="cls-11"
                      d="M371.991,168.2s1.506,10.089,11.225,10.758,11.8-5.367,11.8-5.367a18.576,18.576,0,0,1-2.391.191s2.845-4.889,0-9.563-12.527-9.671-19.712-7.172a17.058,17.058,0,0,0-13.6,1.315c-6.73,3.909-5.535,12.432-5.535,12.432s-.3-5.176,2.845-6.622c0,0-3.885,10.651,1.936,13.5C358.543,177.632,359.117,167.149,371.991,168.2Z"
                      transform="translate(-242.941 -156.204)"/>
                <path id="Path_8964" data-name="Path 8964" class="cls-14"
                      d="M364.26,246.984s-34.666-.789-36.626-.98-10.173-4.781-11.954-5.033-6.431,7.172-7.017,8.894,13.149,6.383,14.476,6.18a24.73,24.73,0,0,0,4.459-1.662l35.383,4.554Z"
                      transform="translate(-251.742 -139.644)"/>
                <path id="Path_8965" data-name="Path 8965" class="cls-11"
                      d="M271,252v3.168c0,.944,1.626,1.614,2.57,1.614h73.862c.956,0,2.462-.669,2.462-1.614V252Z"
                      transform="translate(-259.096 -137.488)"/>
                <path id="Path_8966" data-name="Path 8966" class="cls-5"
                      d="M271,252v3.168c0,.944,1.626,1.614,2.57,1.614h73.862c.956,0,2.462-.669,2.462-1.614V252Z"
                      transform="translate(-259.096 -137.488)"/>
                <path id="Path_8967" data-name="Path 8967" class="cls-10"
                      d="M271,252v3.168c0,.944,1.626,1.614,2.57,1.614h48.711c.956,0,2.51-.669,2.51-1.614V252Z"
                      transform="translate(-259.096 -137.488)"/>
                <path id="Path_8968" data-name="Path 8968" class="cls-11"
                      d="M261.1,219.806l8.8,40.033a3.12,3.12,0,0,0,2.857,2.391H320.76a2.08,2.08,0,0,0,1.805-2.678l-8.786-39.591a2.749,2.749,0,0,0-2.857-1.96H262.916C261.625,218,260.813,218.5,261.1,219.806Z"
                      transform="translate(-261.042 -144.133)"/>
                <path id="Path_8969" data-name="Path 8969" class="cls-5"
                      d="M261.1,219.806l8.8,40.033a3.12,3.12,0,0,0,2.857,2.391H320.76a2.08,2.08,0,0,0,1.805-2.678l-8.786-39.591a2.749,2.749,0,0,0-2.857-1.96H262.916C261.625,218,260.813,218.5,261.1,219.806Z"
                      transform="translate(-261.042 -144.133)"/>
                <path id="Path_8970" data-name="Path 8970" class="cls-7"
                      d="M261.1,219.806l8.8,40.033a3.12,3.12,0,0,0,2.857,2.391h46.392a2.092,2.092,0,0,0,1.817-2.678l-8.786-39.591a2.749,2.749,0,0,0-2.857-1.96h-46.4C261.625,218,260.813,218.5,261.1,219.806Z"
                      transform="translate(-261.042 -144.133)"/>
                <path id="Path_8971" data-name="Path 8971" class="cls-10"
                      d="M285.589,242.758c-2.235,0-4.53-2.391-5.116-5.355s.765-5.4,3.048-5.4a3.479,3.479,0,0,1,1.2.239,6.861,6.861,0,0,0,3.813,4.889,1.742,1.742,0,0,1,.06.239C289.187,240.368,287.836,242.758,285.589,242.758Z"
                      transform="translate(-257.272 -141.396)"/>
                <path id="Path_8972" data-name="Path 8972" class="cls-10"
                      d="M403.7,237.623h0c-5.152,8.368-12.36,17.273-19.544,16.855-7.519-.442.06-15.791,8.14-29.155a18.787,18.787,0,0,1,.8,1.877c1.829,5.116,7.411-1.2,10.256-9.42a178.113,178.113,0,0,1,.347,19.843Z"
                      transform="translate(-237.593 -144.174)"/>
                <path id="Path_8973" data-name="Path 8973" class="cls-11"
                      d="M406.323,207.66c17.727,6.383-13.388,54.389-23.059,59.338s-35.084-.753-35.084-.753l1.578-14.835s20.118,1.363,24.123.347,13.52-21.517,18.994-31.139A30.889,30.889,0,0,1,406.323,207.66Z"
                      transform="translate(-244.018 -146.151)"/>
                <path id="Path_8974" data-name="Path 8974" class="cls-12"
                      d="M355.249,398.154l-21.074,1.375L332.37,390.5l23.154-1.064Z"
                      transform="translate(-247.106 -110.637)"/>
                <path id="Path_8975" data-name="Path 8975" class="cls-12"
                      d="M334.477,390.741l-20.321,5.75-3.646-8.451,22.425-5.869Z"
                      transform="translate(-251.377 -112.057)"/>
                <path id="Path_8976" data-name="Path 8976" class="cls-11"
                      d="M323.715,401.958l10.376-2.893a.693.693,0,0,1,.861.43h0l2.809,8.081a1.709,1.709,0,0,1-1.2,2.092c-3.646.944-5.427,1.2-10.005,2.462-2.809.777-8.284,2.57-12.288,3.024s-4.339-3.514-2.69-4.052c3.921-1.315,8.619-5.4,10.651-8.176a2.714,2.714,0,0,1,1.482-.968Z"
                      transform="translate(-251.35 -108.762)"/>
                <path id="Path_8977" data-name="Path 8977" class="cls-4"
                      d="M340.87,408.356h0c0-.167-.167-2.881-1.2-3.742a1.387,1.387,0,0,0-1.076-.251.92.92,0,0,0-.813.717,3.455,3.455,0,0,0,.944,2.2,3.956,3.956,0,0,0-2.654-.49.885.885,0,0,0-.49.669,1.2,1.2,0,0,0,.359,1.2,2.546,2.546,0,0,0,1.817.359,11.133,11.133,0,0,0,2.51-.5.1.1,0,0,0,.084,0v-.072s.227,0,.239-.084.2,0,.2,0Zm-2.642-3.227c0-.132.084-.3.394-.359h.108a.61.61,0,0,1,.49.179c.61.5.777,2.02.813,2.929l-.191-.108a4.519,4.519,0,0,1-1.614-2.642Zm-1.96,3.168a.837.837,0,0,1-.179-.777.4.4,0,0,1,.239-.323c.61-.287,2.247.418,3.407,1.052-1.721.466-2.988.466-3.467.1Z"
                      transform="translate(-246.486 -107.725)"/>
                <path id="Path_8978" data-name="Path 8978" class="cls-11"
                      d="M342.644,406.84l10.758-.669a.669.669,0,0,1,.753.6h0l1.052,8.487a1.673,1.673,0,0,1-1.566,1.793c-3.753.179-5.558.072-10.292.335-2.9.167-8.631.789-12.647.394s-3.514-4.339-1.781-4.53c4.1-.466,9.563-3.479,12.109-5.774a2.678,2.678,0,0,1,1.614-.634Z"
                      transform="translate(-248.033 -107.369)"/>
            </g>
        </g>
        <g id="freepik--Table--inject-105" transform="translate(411.256 348.211)">
            <path id="Path_8979" data-name="Path 8979" class="cls-4" d="M300.305,445.941h7.316l1.207-183.191H299.11Z"
                  transform="translate(-218.494 -254.191)"/>
            <path id="Path_8980" data-name="Path 8980" class="cls-7"
                  d="M299.1,263l.191,29.562,1,153.33h7.328l1-153.33L308.818,263Z"
                  transform="translate(-218.496 -254.142)"/>
            <path id="Path_8981" data-name="Path 8981" class="cls-10" d="M299.1,263l.191,29.884h9.336L308.818,263Z"
                  transform="translate(-218.496 -254.142)"/>
            <path id="Path_8982" data-name="Path 8982" class="cls-4" d="M235.07,445.941h7.316L255.547,262.75h-9.718Z"
                  transform="translate(-231.006 -254.191)"/>
            <path id="Path_8983" data-name="Path 8983" class="cls-6"
                  d="M235.06,445.892h7.328L254.9,271.81l.645-8.81H245.83l-.526,8.81Z"
                  transform="translate(-231.008 -254.142)"/>
            <path id="Path_8984" data-name="Path 8984" class="cls-10" d="M243.63,271.368h9.6l.645-8.368h-9.718Z"
                  transform="translate(-229.333 -254.142)"/>
            <path id="Path_8985" data-name="Path 8985" class="cls-4" d="M367.3,445.941h7.316L363.858,262.75H354.14Z"
                  transform="translate(-207.743 -254.191)"/>
            <path id="Path_8986" data-name="Path 8986" class="cls-6"
                  d="M354.14,263l.645,8.81L367.3,445.892h7.316L364.384,271.81l-.526-8.81Z"
                  transform="translate(-207.743 -254.142)"/>
            <path id="Path_8987" data-name="Path 8987" class="cls-10" d="M363.858,263H354.14l.645,8.368h9.6Z"
                  transform="translate(-207.743 -254.142)"/>
            <path id="Path_8988" data-name="Path 8988" class="cls-4"
                  d="M2.582,0H154.107a2.582,2.582,0,0,1,2.582,2.582V9.169H0V2.582A2.582,2.582,0,0,1,2.582,0Z"
                  transform="translate(163.814 13.149) rotate(180)"/>
            <path id="Path_8989" data-name="Path 8989" class="cls-5"
                  d="M2.582,0H154.107a2.582,2.582,0,0,1,2.582,2.582V9.169H0V2.582A2.582,2.582,0,0,1,2.582,0Z"
                  transform="translate(163.814 13.149) rotate(180)"/>
            <rect id="Rectangle_2528" data-name="Rectangle 2528" class="cls-10" width="156.689" height="4.59"
                  transform="translate(163.814 8.559) rotate(180)"/>
            <path id="Path_8990" data-name="Path 8990" class="cls-4"
                  d="M234.252,260.766H400.026a2.594,2.594,0,0,0,2.582-2.594h0a2.582,2.582,0,0,0-2.582-2.582H234.252a2.582,2.582,0,0,0-2.582,2.582h0a2.594,2.594,0,0,0,2.582,2.594Z"
                  transform="translate(-231.67 -255.59)"/>
            <path id="Path_8991" data-name="Path 8991" class="cls-5"
                  d="M234.252,260.766H400.026a2.594,2.594,0,0,0,2.582-2.594h0a2.582,2.582,0,0,0-2.582-2.582H234.252a2.582,2.582,0,0,0-2.582,2.582h0a2.594,2.594,0,0,0,2.582,2.594Z"
                  transform="translate(-231.67 -255.59)"/>
        </g>
    </g>
</svg>
